<svg version="1.0" xmlns="http://www.w3.org/2000/svg"
 width="199.000000pt" height="169.000000pt" viewBox="0 0 199.000000 169.000000"
 preserveAspectRatio="xMidYMid meet">
<g transform="translate(0.000000,169.000000) scale(0.100000,-0.100000)"
 stroke="none">
<path d="M1120 1615 l-54 -54 324 -318 323 -318 -849 -5 -849 -5 -3 -77 -3
-78 851 0 c467 0 850 -3 850 -7 0 -5 -144 -150 -320 -323 l-321 -315 56 -57
55 -56 405 400 c383 378 405 402 405 436 0 34 -22 57 -401 431 -221 218 -404
397 -408 399 -4 1 -31 -22 -61 -53z"/>
</g>
</svg>